# xmcd CD database file
#
# Track frame offsets:
#	150
#	20896
#	41553
#	62976
#	83471
#	103491
#	119857
#	143533
#	162646
#	198104
#
# Disc length: 2999 seconds
#
# Revision: 0
# Processed by: cddbd v1.5.2PL0 Copyright (c) Steve Scherf et al.
# Submitted via: CDex 1.51
#
DISCID=910bb50a
DTITLE=Robbie Ducey Band - Edge of Reality
DYEAR=1997
DGENRE=Blues
TTITLE0=01 Thats Why I Sing The Blues
TTITLE1=02 Aint No Love
TTITLE2=03 Bad Luck
TTITLE3=04 Violence in her Silence
TTITLE4=05 I Wanna Make Love To You
TTITLE5=06 Fool For Your Love
TTITLE6=07 Georgia on my Mind
TTITLE7=08 Sweet Soul Vibe
TTITLE8=09 When You've Got the Blues
TTITLE9=10 The Edge of Reality
EXTD=YEAR: 1997
EXTT0=
EXTT1=
EXTT2=
EXTT3=
EXTT4=
EXTT5=
EXTT6=
EXTT7=
EXTT8=
EXTT9=
PLAYORDER=
